<!-- Copyright 2022. (유리세계, ru.hn) all rights reserved. --><svg xmlns="http://www.w3.org/2000/svg" viewBox="0 0 141.73 141.73"><defs><style>.cls-1{fill:#60b8f0;}.cls-2{fill:#fff;}.cls-3{fill:#d97a74;}</style></defs><g id="레이어_2" data-name="레이어 2"><g id="레이어_1-2" data-name="레이어 1"><rect class="cls-1" width="141.73" height="141.73"/><path class="cls-2" d="M77.18,14.13C71.54,14.79,59.1,25.6,59.1,25.6h7.59c.43,3.2,3,6.21,6.19,6.63s5.88-2.09,6.17-2.4A7,7,0,0,0,81,25.6h.59S82.83,13.48,77.18,14.13Z"/><path class="cls-2" d="M43,26.06S27.23,18.9,21.9,21s1.56,16.24,1.56,16.24l1-.57c.89,2,2,3.45,3.77,4,3.9,1.17,9.7-2.71,10.06-7.59a6.49,6.49,0,0,0-.89-3.76Z"/><path class="cls-2" d="M16.06,131.49H36.52l15-46.17h9.94v46.24h20l.09-2.94V85.32h21v46.24H122.8V23.93H102.63V70.15h-21V23.93H48.26q-14.43,0-21.83,7.65t-7.3,22.14q0,9.89,3.31,16.43A23.85,23.85,0,0,0,33,80.73ZM39.39,54.56q0-7.94,2.92-11.56Q45,39.66,50.4,39.66H61.51V70.15h-11a9.62,9.62,0,0,1-8.19-3.76Q39.4,62.49,39.39,54.56Zm12.75-6.05H71.6V51.7H52.32C46.06,51.7,45.78,48.51,52.14,48.51Zm0,8.83H71.6v3.18H52.32C46.06,60.52,45.78,57.34,52.14,57.34Z"/><path class="cls-3" d="M26.43,31.58a22.9,22.9,0,0,1,7.27-5c-2.63-.92-5.87-1.79-7.44-1.18-1.85.71-1,4.13-.12,6.49C26.24,31.8,26.33,31.69,26.43,31.58Z"/><path class="cls-3" d="M76.53,23.93c0-1.92-.46-4.61-2.45-4.38s-5.3,2.62-7.55,4.38Z"/></g></g></svg>